<?xml version="1.0" encoding="UTF-8" standalone="no"?>
<!-- Created with Inkscape (http://www.inkscape.org/) -->

<svg
   xmlns:dc="http://purl.org/dc/elements/1.1/"
   xmlns:cc="http://creativecommons.org/ns#"
   xmlns:rdf="http://www.w3.org/1999/02/22-rdf-syntax-ns#"
   xmlns:svg="http://www.w3.org/2000/svg"
   xmlns="http://www.w3.org/2000/svg"
   xmlns:sodipodi="http://sodipodi.sourceforge.net/DTD/sodipodi-0.dtd"
   xmlns:inkscape="http://www.inkscape.org/namespaces/inkscape"
   width="279.39999mm"
   height="215.89999mm"
   viewBox="0 0 279.4 215.9"
   version="1.1"
   id="svg4522"
   inkscape:version="0.91 r13725"
   sodipodi:docname="middle layer.svg">
  <defs
     id="defs4516" />
  <sodipodi:namedview
     id="base"
     pagecolor="#ffffff"
     bordercolor="#666666"
     borderopacity="1.0"
     inkscape:pageopacity="0.0"
     inkscape:pageshadow="2"
     inkscape:zoom="0.7"
     inkscape:cx="49.816291"
     inkscape:cy="511.33505"
     inkscape:document-units="mm"
     inkscape:current-layer="layer1"
     showgrid="false"
     units="mm"
     inkscape:snap-bbox="true"
     inkscape:bbox-paths="true"
     inkscape:bbox-nodes="true"
     inkscape:snap-bbox-edge-midpoints="true"
     inkscape:snap-bbox-midpoints="false"
     inkscape:object-paths="true"
     inkscape:snap-intersection-paths="true"
     inkscape:snap-smooth-nodes="true"
     inkscape:snap-midpoints="true"
     inkscape:window-width="1920"
     inkscape:window-height="1017"
     inkscape:window-x="-8"
     inkscape:window-y="-8"
     inkscape:window-maximized="1" />
  <metadata
     id="metadata4519">
    <rdf:RDF>
      <cc:Work
         rdf:about="">
        <dc:format>image/svg+xml</dc:format>
        <dc:type
           rdf:resource="http://purl.org/dc/dcmitype/StillImage" />
        <dc:title />
      </cc:Work>
    </rdf:RDF>
  </metadata>
  <g
     inkscape:label="Layer 1"
     inkscape:groupmode="layer"
     id="layer1"
     transform="translate(0,-81.1)">
    <path
       style="fill:#ffffff;fill-opacity:1;stroke:#ff0000;stroke-width:0.44999996;stroke-linecap:round;stroke-linejoin:round;stroke-miterlimit:4;stroke-dasharray:none;stroke-dashoffset:0;stroke-opacity:1"
       d="M 42.197266 44.128906 L 8 78.328125 L 8 772.94336 L 42.199219 807.14258 L 181.63281 807.14258 L 181.63281 674.85938 L 786.35742 674.85938 L 786.35742 807.14258 L 925.87695 807.14258 L 959.99023 773.0293 L 959.99023 78.28125 L 925.83789 44.128906 L 42.197266 44.128906 z "
       transform="matrix(0.26458333,0,0,0.26458333,0,81.1)"
       id="rect5067" />
    <g
       transform="matrix(0.10720099,0,0,-0.0892211,32.004952,250.81763)"
       id="g4506"
       style="fill:none;stroke:#ff0000">
      <path
         inkscape:connector-curvature="0"
         d="m 896,-128 q -26,0 -44,18 l -624,602 q -10,8 -27.5,26 -17.5,18 -55.5,65.5 -38,47.5 -68,97.5 -30,50 -53.5,121 -23.5,71 -23.5,138 0,220 127,344 127,124 351,124 62,0 126.5,-21.5 64.5,-21.5 120,-58 55.5,-36.5 95.5,-68.5 40,-32 76,-68 36,36 76,68 40,32 95.5,68.5 55.5,36.5 120,58 64.5,21.5 126.5,21.5 224,0 351,-124 127,-124 127,-344 0,-221 -229,-450 l -623,-600 q -18,-18 -44,-18"
         id="path4504"
         style="fill:none;stroke:#ff0000" />
    </g>
  </g>
</svg>
